<mxfile host="app.diagrams.net" modified="2022-03-28T08:12:43.212Z" agent="5.0 (Windows NT 10.0; Win64; x64) AppleWebKit/537.36 (KHTML, like Gecko) Chrome/98.0.4758.119 YaBrowser/22.3.0.2430 Yowser/2.5 Safari/537.36" etag="SEuifR3OmoNoGL9SZ3ls" version="17.1.2" type="github">
  <diagram id="0LDRQkIn8O1QZU5tjKof" name="Page-1">
    <mxGraphModel dx="3384" dy="1199" grid="1" gridSize="10" guides="1" tooltips="1" connect="1" arrows="1" fold="1" page="1" pageScale="1" pageWidth="827" pageHeight="1169" math="0" shadow="0">
      <root>
        <mxCell id="0" />
        <mxCell id="1" parent="0" />
        <mxCell id="NItQtO32SqaME0U2cCp2-9" value="" style="group" vertex="1" connectable="0" parent="1">
          <mxGeometry x="330" y="210" width="220" height="280" as="geometry" />
        </mxCell>
        <mxCell id="NItQtO32SqaME0U2cCp2-1" value="" style="rounded=1;whiteSpace=wrap;html=1;" vertex="1" parent="NItQtO32SqaME0U2cCp2-9">
          <mxGeometry width="220" height="280" as="geometry" />
        </mxCell>
        <mxCell id="NItQtO32SqaME0U2cCp2-2" value="" style="shape=datastore;whiteSpace=wrap;html=1;labelPosition=center;verticalLabelPosition=bottom;align=center;verticalAlign=top;shadow=1;" vertex="1" parent="NItQtO32SqaME0U2cCp2-9">
          <mxGeometry x="45" y="50" width="130" height="70" as="geometry" />
        </mxCell>
        <mxCell id="NItQtO32SqaME0U2cCp2-4" value="&lt;font style=&quot;font-size: 18px&quot;&gt;подсистема бд&lt;/font&gt;" style="text;html=1;strokeColor=none;fillColor=none;align=center;verticalAlign=middle;whiteSpace=wrap;rounded=0;" vertex="1" parent="NItQtO32SqaME0U2cCp2-9">
          <mxGeometry x="45" y="10" width="130" height="30" as="geometry" />
        </mxCell>
        <mxCell id="NItQtO32SqaME0U2cCp2-5" value="&lt;font style=&quot;font-size: 14px&quot;&gt;обрабатывать входящие запросы&lt;/font&gt;" style="rounded=0;whiteSpace=wrap;html=1;shadow=1;" vertex="1" parent="NItQtO32SqaME0U2cCp2-9">
          <mxGeometry x="30" y="130" width="160" height="40" as="geometry" />
        </mxCell>
        <mxCell id="NItQtO32SqaME0U2cCp2-6" value="&lt;span style=&quot;line-height: 150% ; font-family: &amp;#34;times new roman&amp;#34; , serif&quot;&gt;&lt;font style=&quot;font-size: 14px&quot;&gt;Проверять&lt;br/&gt;данные на соответствие&lt;/font&gt;&lt;/span&gt;" style="rounded=0;whiteSpace=wrap;html=1;shadow=1;" vertex="1" parent="NItQtO32SqaME0U2cCp2-9">
          <mxGeometry x="30" y="190" width="160" height="40" as="geometry" />
        </mxCell>
        <mxCell id="NItQtO32SqaME0U2cCp2-30" value="бд" style="text;html=1;strokeColor=none;fillColor=none;align=center;verticalAlign=middle;whiteSpace=wrap;rounded=0;shadow=1;fontSize=14;" vertex="1" parent="NItQtO32SqaME0U2cCp2-9">
          <mxGeometry x="80" y="85" width="60" height="30" as="geometry" />
        </mxCell>
        <mxCell id="NItQtO32SqaME0U2cCp2-55" style="edgeStyle=orthogonalEdgeStyle;rounded=0;orthogonalLoop=1;jettySize=auto;html=1;exitX=1;exitY=0.25;exitDx=0;exitDy=0;entryX=0;entryY=0.25;entryDx=0;entryDy=0;fontSize=14;" edge="1" parent="1" source="NItQtO32SqaME0U2cCp2-19" target="NItQtO32SqaME0U2cCp2-1">
          <mxGeometry relative="1" as="geometry" />
        </mxCell>
        <mxCell id="NItQtO32SqaME0U2cCp2-56" style="edgeStyle=orthogonalEdgeStyle;rounded=0;orthogonalLoop=1;jettySize=auto;html=1;exitX=1;exitY=0.75;exitDx=0;exitDy=0;entryX=0;entryY=0.75;entryDx=0;entryDy=0;fontSize=14;" edge="1" parent="1" source="NItQtO32SqaME0U2cCp2-19" target="NItQtO32SqaME0U2cCp2-1">
          <mxGeometry relative="1" as="geometry" />
        </mxCell>
        <mxCell id="NItQtO32SqaME0U2cCp2-57" style="edgeStyle=orthogonalEdgeStyle;rounded=0;orthogonalLoop=1;jettySize=auto;html=1;exitX=0;exitY=0.5;exitDx=0;exitDy=0;fontSize=14;" edge="1" parent="1" source="NItQtO32SqaME0U2cCp2-19" target="NItQtO32SqaME0U2cCp2-24">
          <mxGeometry relative="1" as="geometry" />
        </mxCell>
        <mxCell id="NItQtO32SqaME0U2cCp2-19" value="" style="rounded=1;whiteSpace=wrap;html=1;" vertex="1" parent="1">
          <mxGeometry x="10" y="210" width="220" height="280" as="geometry" />
        </mxCell>
        <mxCell id="NItQtO32SqaME0U2cCp2-20" value="&lt;span style=&quot;font-size: 14.0pt ; line-height: 150% ; font-family: &amp;#34;times new roman&amp;#34; , serif&quot;&gt;Подсистема работы с внешними системами&lt;/span&gt;" style="text;html=1;strokeColor=none;fillColor=none;align=center;verticalAlign=middle;whiteSpace=wrap;rounded=0;shadow=1;fontSize=18;" vertex="1" parent="1">
          <mxGeometry x="10" y="225" width="210" height="30" as="geometry" />
        </mxCell>
        <mxCell id="NItQtO32SqaME0U2cCp2-21" value="&lt;font style=&quot;font-size: 14px&quot;&gt;&lt;span style=&quot;line-height: 150% ; font-family: &amp;#34;times new roman&amp;#34; , serif&quot;&gt;Передавать&lt;br/&gt;данные внешним системам&lt;/span&gt;&lt;/font&gt;" style="rounded=0;whiteSpace=wrap;html=1;shadow=1;" vertex="1" parent="1">
          <mxGeometry x="40" y="280" width="160" height="60" as="geometry" />
        </mxCell>
        <mxCell id="NItQtO32SqaME0U2cCp2-22" value="&lt;span style=&quot;line-height: 150% ; font-family: &amp;#34;times new roman&amp;#34; , serif&quot;&gt;&lt;font style=&quot;font-size: 14px&quot;&gt;Обращаться&lt;br/&gt;к внешним системам для получения данных&lt;/font&gt;&lt;/span&gt;" style="rounded=0;whiteSpace=wrap;html=1;shadow=1;align=center;" vertex="1" parent="1">
          <mxGeometry x="40" y="370" width="160" height="70" as="geometry" />
        </mxCell>
        <mxCell id="NItQtO32SqaME0U2cCp2-33" value="" style="group" vertex="1" connectable="0" parent="1">
          <mxGeometry x="-270" y="200" width="220" height="300" as="geometry" />
        </mxCell>
        <mxCell id="NItQtO32SqaME0U2cCp2-24" value="" style="rounded=1;whiteSpace=wrap;html=1;" vertex="1" parent="NItQtO32SqaME0U2cCp2-33">
          <mxGeometry width="220" height="300" as="geometry" />
        </mxCell>
        <mxCell id="NItQtO32SqaME0U2cCp2-25" value="&lt;span style=&quot;font-size: 14.0pt ; line-height: 150% ; font-family: &amp;#34;times new roman&amp;#34; , serif&quot;&gt;Подсистема&lt;br/&gt;формирования документов&amp;nbsp;&lt;/span&gt;" style="text;html=1;strokeColor=none;fillColor=none;align=center;verticalAlign=middle;whiteSpace=wrap;rounded=0;shadow=1;fontSize=18;" vertex="1" parent="NItQtO32SqaME0U2cCp2-33">
          <mxGeometry x="20" y="30" width="180" height="30" as="geometry" />
        </mxCell>
        <mxCell id="NItQtO32SqaME0U2cCp2-26" value="&lt;span style=&quot;line-height: 150% ; font-family: &amp;#34;times new roman&amp;#34; , serif&quot;&gt;&lt;font style=&quot;font-size: 14px&quot;&gt;Формировать&lt;br/&gt;документ нужного формата&lt;/font&gt;&lt;/span&gt;" style="rounded=0;whiteSpace=wrap;html=1;shadow=1;" vertex="1" parent="NItQtO32SqaME0U2cCp2-33">
          <mxGeometry x="30" y="90" width="160" height="50" as="geometry" />
        </mxCell>
        <mxCell id="NItQtO32SqaME0U2cCp2-27" value="&lt;span style=&quot;line-height: 150% ; font-family: &amp;#34;times new roman&amp;#34; , serif&quot;&gt;&lt;font style=&quot;font-size: 14px&quot;&gt;Группировать&lt;br/&gt;данные в документе согласно заданным настройкам&lt;/font&gt;&lt;/span&gt;" style="rounded=0;whiteSpace=wrap;html=1;shadow=1;align=center;" vertex="1" parent="NItQtO32SqaME0U2cCp2-33">
          <mxGeometry x="30" y="150" width="160" height="70" as="geometry" />
        </mxCell>
        <mxCell id="NItQtO32SqaME0U2cCp2-28" value="&lt;span style=&quot;line-height: 150% ; font-family: &amp;#34;times new roman&amp;#34; , serif&quot;&gt;&lt;font style=&quot;font-size: 14px&quot;&gt;Предоставить&lt;br/&gt;возможность скачивания и печати документа&lt;/font&gt;&lt;/span&gt;" style="rounded=0;whiteSpace=wrap;html=1;shadow=1;" vertex="1" parent="NItQtO32SqaME0U2cCp2-33">
          <mxGeometry x="30" y="230" width="160" height="60" as="geometry" />
        </mxCell>
        <mxCell id="NItQtO32SqaME0U2cCp2-52" style="edgeStyle=orthogonalEdgeStyle;rounded=0;orthogonalLoop=1;jettySize=auto;html=1;exitX=0.75;exitY=0;exitDx=0;exitDy=0;entryX=0.75;entryY=1;entryDx=0;entryDy=0;fontSize=14;" edge="1" parent="1" source="NItQtO32SqaME0U2cCp2-34" target="NItQtO32SqaME0U2cCp2-1">
          <mxGeometry relative="1" as="geometry" />
        </mxCell>
        <mxCell id="NItQtO32SqaME0U2cCp2-54" style="edgeStyle=orthogonalEdgeStyle;rounded=0;orthogonalLoop=1;jettySize=auto;html=1;exitX=0;exitY=0.25;exitDx=0;exitDy=0;entryX=0.75;entryY=1;entryDx=0;entryDy=0;fontSize=14;" edge="1" parent="1" source="NItQtO32SqaME0U2cCp2-34" target="NItQtO32SqaME0U2cCp2-19">
          <mxGeometry relative="1" as="geometry" />
        </mxCell>
        <mxCell id="NItQtO32SqaME0U2cCp2-34" value="" style="rounded=1;whiteSpace=wrap;html=1;" vertex="1" parent="1">
          <mxGeometry x="330" y="540" width="220" height="320" as="geometry" />
        </mxCell>
        <mxCell id="NItQtO32SqaME0U2cCp2-35" value="подсистема работы с данными" style="text;html=1;strokeColor=none;fillColor=none;align=center;verticalAlign=middle;whiteSpace=wrap;rounded=0;shadow=1;fontSize=18;" vertex="1" parent="1">
          <mxGeometry x="370" y="555" width="150" height="30" as="geometry" />
        </mxCell>
        <mxCell id="NItQtO32SqaME0U2cCp2-36" value="&lt;span style=&quot;line-height: 150% ; font-family: &amp;#34;times new roman&amp;#34; , serif&quot;&gt;&lt;font style=&quot;font-size: 14px&quot;&gt;Отображать&lt;br/&gt;информацию нужного пользователя&lt;/font&gt;&lt;/span&gt;" style="rounded=0;whiteSpace=wrap;html=1;shadow=1;" vertex="1" parent="1">
          <mxGeometry x="360" y="610" width="160" height="50" as="geometry" />
        </mxCell>
        <mxCell id="NItQtO32SqaME0U2cCp2-37" value="&lt;span style=&quot;line-height: 150% ; font-family: &amp;#34;times new roman&amp;#34; , serif&quot;&gt;&lt;font style=&quot;font-size: 14px&quot;&gt;Выводить&lt;br/&gt;информацию по заданным фильтрам&lt;/font&gt;&lt;/span&gt;" style="rounded=0;whiteSpace=wrap;html=1;shadow=1;align=center;" vertex="1" parent="1">
          <mxGeometry x="360" y="730" width="160" height="60" as="geometry" />
        </mxCell>
        <mxCell id="NItQtO32SqaME0U2cCp2-38" value="&lt;span style=&quot;line-height: 150% ; font-family: &amp;#34;times new roman&amp;#34; , serif&quot;&gt;&lt;font style=&quot;font-size: 14px&quot;&gt;получать и записывать&lt;br&gt;данные в таблицы бд&lt;/font&gt;&lt;/span&gt;" style="rounded=0;whiteSpace=wrap;html=1;shadow=1;" vertex="1" parent="1">
          <mxGeometry x="360" y="680" width="160" height="40" as="geometry" />
        </mxCell>
        <mxCell id="NItQtO32SqaME0U2cCp2-39" value="" style="group" vertex="1" connectable="0" parent="1">
          <mxGeometry x="650" y="210" width="220" height="280" as="geometry" />
        </mxCell>
        <mxCell id="NItQtO32SqaME0U2cCp2-7" value="" style="rounded=1;whiteSpace=wrap;html=1;" vertex="1" parent="NItQtO32SqaME0U2cCp2-39">
          <mxGeometry width="220" height="280" as="geometry" />
        </mxCell>
        <mxCell id="NItQtO32SqaME0U2cCp2-8" value="подсистема администрирования данных" style="text;html=1;strokeColor=none;fillColor=none;align=center;verticalAlign=middle;whiteSpace=wrap;rounded=0;shadow=1;fontSize=18;" vertex="1" parent="NItQtO32SqaME0U2cCp2-39">
          <mxGeometry x="80" y="15" width="60" height="30" as="geometry" />
        </mxCell>
        <mxCell id="NItQtO32SqaME0U2cCp2-10" value="&lt;span style=&quot;line-height: 150% ; font-family: &amp;#34;times new roman&amp;#34; , serif&quot;&gt;&lt;font style=&quot;font-size: 14px&quot;&gt;Обеспечивать&lt;br/&gt;модерацию контента&lt;/font&gt;&lt;/span&gt;" style="rounded=0;whiteSpace=wrap;html=1;shadow=1;" vertex="1" parent="NItQtO32SqaME0U2cCp2-39">
          <mxGeometry x="30" y="80" width="160" height="40" as="geometry" />
        </mxCell>
        <mxCell id="NItQtO32SqaME0U2cCp2-11" value="&lt;div&gt;&lt;span style=&quot;font-size: 14px ; font-family: &amp;#34;times new roman&amp;#34; , serif&quot;&gt;Помогать&lt;/span&gt;&lt;/div&gt;&lt;span style=&quot;line-height: 150% ; font-family: &amp;#34;times new roman&amp;#34; , serif&quot;&gt;&lt;div&gt;&lt;span style=&quot;font-size: 14px&quot;&gt;пользователям при возникновении трудностей&lt;/span&gt;&lt;/div&gt;&lt;/span&gt;" style="rounded=0;whiteSpace=wrap;html=1;shadow=1;align=center;" vertex="1" parent="NItQtO32SqaME0U2cCp2-39">
          <mxGeometry x="30" y="140" width="160" height="70" as="geometry" />
        </mxCell>
        <mxCell id="NItQtO32SqaME0U2cCp2-12" value="&lt;span style=&quot;line-height: 150% ; font-family: &amp;#34;times new roman&amp;#34; , serif&quot;&gt;&lt;font style=&quot;font-size: 14px&quot;&gt;Работать&lt;br/&gt;с данными таблиц&lt;/font&gt;&lt;/span&gt;" style="rounded=0;whiteSpace=wrap;html=1;shadow=1;" vertex="1" parent="NItQtO32SqaME0U2cCp2-39">
          <mxGeometry x="30" y="230" width="160" height="40" as="geometry" />
        </mxCell>
        <mxCell id="NItQtO32SqaME0U2cCp2-77" style="edgeStyle=orthogonalEdgeStyle;rounded=0;orthogonalLoop=1;jettySize=auto;html=1;exitX=0.5;exitY=0;exitDx=0;exitDy=0;exitPerimeter=0;entryX=0.5;entryY=1;entryDx=0;entryDy=0;fontSize=14;" edge="1" parent="1" source="NItQtO32SqaME0U2cCp2-41" target="NItQtO32SqaME0U2cCp2-7">
          <mxGeometry relative="1" as="geometry" />
        </mxCell>
        <mxCell id="NItQtO32SqaME0U2cCp2-41" value="администратор" style="shape=umlActor;verticalLabelPosition=bottom;verticalAlign=top;html=1;outlineConnect=0;shadow=1;fontSize=14;" vertex="1" parent="1">
          <mxGeometry x="745" y="540" width="30" height="60" as="geometry" />
        </mxCell>
        <mxCell id="NItQtO32SqaME0U2cCp2-44" style="edgeStyle=orthogonalEdgeStyle;rounded=0;orthogonalLoop=1;jettySize=auto;html=1;exitX=0.5;exitY=0.5;exitDx=0;exitDy=0;exitPerimeter=0;entryX=0;entryY=0.5;entryDx=0;entryDy=0;fontSize=14;" edge="1" parent="1" source="NItQtO32SqaME0U2cCp2-42" target="NItQtO32SqaME0U2cCp2-34">
          <mxGeometry relative="1" as="geometry" />
        </mxCell>
        <mxCell id="NItQtO32SqaME0U2cCp2-42" value="пользователь" style="shape=umlActor;verticalLabelPosition=bottom;verticalAlign=top;html=1;outlineConnect=0;shadow=1;fontSize=14;" vertex="1" parent="1">
          <mxGeometry x="160" y="670" width="30" height="60" as="geometry" />
        </mxCell>
        <mxCell id="NItQtO32SqaME0U2cCp2-50" style="edgeStyle=orthogonalEdgeStyle;rounded=0;orthogonalLoop=1;jettySize=auto;html=1;exitX=0.5;exitY=0;exitDx=0;exitDy=0;exitPerimeter=0;entryX=0.5;entryY=1;entryDx=0;entryDy=0;fontSize=14;" edge="1" parent="1" source="NItQtO32SqaME0U2cCp2-43" target="NItQtO32SqaME0U2cCp2-19">
          <mxGeometry relative="1" as="geometry" />
        </mxCell>
        <mxCell id="NItQtO32SqaME0U2cCp2-43" value="система гос услуг" style="shape=umlActor;verticalLabelPosition=bottom;verticalAlign=top;html=1;outlineConnect=0;shadow=1;fontSize=14;" vertex="1" parent="1">
          <mxGeometry x="105" y="540" width="30" height="60" as="geometry" />
        </mxCell>
        <mxCell id="NItQtO32SqaME0U2cCp2-49" style="edgeStyle=orthogonalEdgeStyle;rounded=0;orthogonalLoop=1;jettySize=auto;html=1;exitX=0.5;exitY=0.5;exitDx=0;exitDy=0;exitPerimeter=0;entryX=0;entryY=0.75;entryDx=0;entryDy=0;fontSize=14;" edge="1" parent="1" source="NItQtO32SqaME0U2cCp2-47" target="NItQtO32SqaME0U2cCp2-34">
          <mxGeometry relative="1" as="geometry" />
        </mxCell>
        <mxCell id="NItQtO32SqaME0U2cCp2-47" value="преподаватель" style="shape=umlActor;verticalLabelPosition=bottom;verticalAlign=top;html=1;outlineConnect=0;shadow=1;fontSize=14;" vertex="1" parent="1">
          <mxGeometry x="180" y="820" width="30" height="60" as="geometry" />
        </mxCell>
        <mxCell id="NItQtO32SqaME0U2cCp2-48" value="&lt;font face=&quot;times new roman, serif&quot;&gt;&lt;span style=&quot;font-size: 14px&quot;&gt;обеспечивать работу ролевой модели&lt;/span&gt;&lt;/font&gt;" style="rounded=0;whiteSpace=wrap;html=1;shadow=1;" vertex="1" parent="1">
          <mxGeometry x="360" y="800" width="160" height="40" as="geometry" />
        </mxCell>
        <mxCell id="NItQtO32SqaME0U2cCp2-51" style="edgeStyle=orthogonalEdgeStyle;rounded=0;orthogonalLoop=1;jettySize=auto;html=1;exitX=0.25;exitY=1;exitDx=0;exitDy=0;entryX=0.25;entryY=0;entryDx=0;entryDy=0;fontSize=14;" edge="1" parent="1" source="NItQtO32SqaME0U2cCp2-1" target="NItQtO32SqaME0U2cCp2-34">
          <mxGeometry relative="1" as="geometry" />
        </mxCell>
        <mxCell id="NItQtO32SqaME0U2cCp2-58" style="edgeStyle=orthogonalEdgeStyle;rounded=0;orthogonalLoop=1;jettySize=auto;html=1;exitX=0;exitY=0.25;exitDx=0;exitDy=0;entryX=1;entryY=0.25;entryDx=0;entryDy=0;fontSize=14;" edge="1" parent="1" source="NItQtO32SqaME0U2cCp2-7" target="NItQtO32SqaME0U2cCp2-1">
          <mxGeometry relative="1" as="geometry" />
        </mxCell>
        <mxCell id="NItQtO32SqaME0U2cCp2-59" style="edgeStyle=orthogonalEdgeStyle;rounded=0;orthogonalLoop=1;jettySize=auto;html=1;exitX=1;exitY=0.75;exitDx=0;exitDy=0;entryX=0;entryY=0.75;entryDx=0;entryDy=0;fontSize=14;" edge="1" parent="1" source="NItQtO32SqaME0U2cCp2-1" target="NItQtO32SqaME0U2cCp2-7">
          <mxGeometry relative="1" as="geometry" />
        </mxCell>
      </root>
    </mxGraphModel>
  </diagram>
</mxfile>
